<?xml version="1.0" standalone="no"?>
<!DOCTYPE svg PUBLIC "-//W3C//DTD SVG 20010904//EN"
 "http://www.w3.org/TR/2001/REC-SVG-20010904/DTD/svg10.dtd">
<svg version="1.0" xmlns="http://www.w3.org/2000/svg"
 width="2048.000000pt" height="2048.000000pt" viewBox="0 0 2048.000000 2048.000000"
 preserveAspectRatio="xMidYMid meet">
<metadata>
Created by potrace 1.15, written by Peter Selinger 2001-2017
</metadata>
<g transform="translate(0.000000,2048.000000) scale(0.100000,-0.100000)"
fill="#000000" stroke="none">
<path d="M4282 17224 c-61 -23 -145 -103 -173 -166 l-24 -53 -3 -549 -3 -549
-97 7 c-224 14 -534 26 -792 28 -269 2 -276 2 -327 -21 -65 -29 -134 -101
-159 -166 -19 -49 -19 -153 -19 -5540 0 -5221 1 -5492 18 -5534 25 -64 77
-122 138 -156 l54 -30 525 -6 c516 -7 744 -15 1190 -44 1776 -117 3467 -436
4810 -910 232 -82 499 -184 640 -246 111 -48 200 -60 265 -36 22 8 135 53 250
99 1426 577 3278 959 5295 1092 437 29 671 38 1190 45 l525 6 54 30 c61 34
113 92 138 156 17 42 18 313 18 5534 0 5387 0 5491 -19 5540 -25 65 -94 137
-159 166 -51 23 -58 23 -327 21 -258 -2 -568 -14 -792 -28 l-97 -7 -3 549 -3
549 -24 53 c-30 66 -113 144 -177 166 -79 27 -540 18 -1044 -19 -1779 -133
-3502 -687 -4754 -1530 l-156 -104 -152 102 c-1430 962 -3412 1530 -5453 1562
-267 4 -316 3 -353 -11z m578 -479 c820 -38 1704 -185 2510 -420 989 -288
1975 -756 2608 -1237 142 -109 173 -122 276 -116 46 3 94 11 111 20 17 9 87
59 157 111 646 486 1618 944 2613 1232 834 241 1833 397 2680 417 l120 3 3
-3509 2 -3509 -36 6 c-52 9 -618 -10 -861 -28 -241 -18 -500 -46 -727 -79
l-160 -23 -44 34 c-89 68 -174 95 -296 95 -181 -1 -343 -99 -423 -257 -93
-181 -62 -409 76 -559 42 -46 139 -105 209 -126 71 -22 188 -26 261 -9 121 27
263 141 314 250 l26 56 78 12 c428 64 1045 111 1461 111 l122 0 0 -522 0 -523
-253 -2 c-446 -4 -935 -41 -1361 -104 -169 -24 -170 -24 -214 11 -94 75 -240
111 -364 91 -108 -18 -188 -59 -267 -138 -102 -102 -140 -197 -141 -344 0
-196 126 -381 307 -449 72 -27 198 -37 275 -21 134 28 266 129 327 248 24 48
36 63 58 67 120 25 631 79 908 96 199 13 714 27 721 21 2 -2 4 -192 4 -421 l0
-417 -337 -6 c-1868 -36 -3667 -442 -5121 -1158 l-243 -119 -232 114 c-954
470 -1994 792 -3181 986 -688 113 -1472 180 -2093 180 l-193 0 0 425 0 425 58
-5 c31 -2 166 -7 300 -10 377 -8 685 -31 1072 -80 269 -34 245 -26 282 -98 59
-118 193 -220 326 -248 77 -16 203 -6 275 21 182 69 307 252 307 449 -1 147
-39 242 -141 344 -79 79 -159 120 -267 138 -125 21 -270 -16 -366 -93 l-39
-31 -201 26 c-516 69 -896 97 -1345 100 l-261 2 0 528 0 527 38 -5 c20 -2 147
-7 282 -10 457 -11 876 -45 1283 -106 l78 -12 27 -56 c41 -84 134 -173 226
-217 67 -32 90 -38 170 -42 157 -8 274 35 377 137 102 103 145 220 137 377 -4
79 -10 103 -40 166 -85 179 -241 279 -435 279 -121 1 -206 -27 -295 -94 l-44
-34 -159 23 c-222 32 -495 61 -733 79 -267 20 -817 36 -864 26 -20 -5 -40 -6
-43 -3 -8 8 -6 7008 3 7016 4 4 47 5 97 2 49 -3 146 -8 215 -11z m-1055 -1425
c105 -6 209 -13 232 -16 l43 -5 2 -4387 3 -4387 24 -53 c31 -69 115 -147 181
-166 40 -12 104 -14 357 -9 1112 20 2384 -145 3471 -452 273 -77 718 -228 957
-323 348 -140 510 -215 1017 -475 69 -36 84 -40 149 -39 61 0 81 5 138 34 646
333 953 467 1471 643 1209 411 2670 636 3978 612 257 -5 322 -3 362 9 66 19
150 97 181 166 l24 53 3 4387 2 4387 43 5 c51 7 347 23 590 32 l177 7 0 -5122
0 -5121 -62 0 c-180 -1 -828 -22 -1073 -35 -2125 -116 -4081 -505 -5653 -1125
l-182 -72 -153 61 c-1776 702 -3974 1099 -6427 1161 -212 5 -386 10 -387 10
-2 0 -3 2305 -3 5121 l0 5122 173 -7 c94 -4 258 -11 362 -16z m3003 -5801 c99
-49 152 -129 159 -239 16 -228 -226 -383 -426 -274 -62 33 -96 70 -129 142
-20 45 -24 65 -20 125 8 166 122 274 289 276 54 1 76 -4 127 -30z m7118 14
c66 -22 145 -101 167 -167 27 -80 22 -162 -14 -234 -49 -99 -129 -152 -239
-159 -260 -18 -406 282 -235 485 14 17 53 45 87 61 72 36 154 41 234 14z
m-7130 -1573 c134 -58 206 -220 159 -361 -26 -77 -109 -159 -189 -183 -185
-58 -376 79 -376 270 0 77 22 141 66 193 87 101 220 133 340 81z m7140 0 c54
-23 109 -73 141 -128 40 -68 45 -180 11 -254 -53 -114 -143 -173 -268 -173
-62 0 -84 5 -126 27 -109 57 -171 166 -162 282 17 202 219 326 404 246z"/>
<path d="M10010 14443 c-487 -49 -871 -161 -1232 -359 -218 -119 -327 -193
-508 -344 -150 -126 -219 -194 -355 -351 -72 -82 -245 -326 -245 -344 0 -2
-15 -28 -34 -57 -68 -107 -156 -302 -222 -493 -40 -113 -81 -301 -109 -490
-54 -370 -15 -764 116 -1160 78 -236 237 -543 415 -802 34 -50 75 -114 91
-143 47 -87 62 -112 111 -188 26 -40 208 -330 404 -645 196 -314 616 -988 934
-1497 317 -509 642 -1031 722 -1160 79 -129 145 -236 146 -237 1 -2 21 30 45
70 23 39 60 99 81 132 21 33 60 96 86 140 26 44 71 116 100 161 30 44 54 87
54 94 0 8 11 25 24 39 22 24 189 286 252 396 16 28 67 110 114 182 120 188
173 273 187 304 6 15 38 67 71 116 33 48 110 172 172 273 103 169 181 294 295
470 117 181 174 279 183 313 6 21 31 68 55 105 25 37 57 89 72 116 16 28 44
68 65 90 51 58 97 124 175 256 38 63 132 216 210 340 78 124 147 239 153 257
12 36 164 290 227 378 122 172 258 554 312 875 13 79 18 176 20 389 4 281 3
285 -27 442 -80 418 -203 723 -423 1049 -165 245 -388 480 -637 671 -86 67
-273 189 -287 189 -5 0 -33 16 -63 37 -72 47 -267 140 -405 192 -222 83 -481
148 -685 171 -52 6 -125 15 -162 21 -62 8 -419 10 -498 2z m532 -758 c443 -67
855 -274 1172 -591 168 -168 288 -337 396 -556 230 -468 277 -993 134 -1491
-178 -621 -638 -1127 -1244 -1367 -130 -52 -329 -104 -478 -124 -147 -21 -417
-21 -564 0 -819 114 -1495 699 -1722 1491 -67 232 -93 485 -76 718 78 1041
888 1853 1935 1939 90 7 342 -4 447 -19z"/>
<path d="M9145 12822 c-49 -24 -89 -65 -109 -114 -22 -53 -20 -143 4 -192 13
-27 212 -233 593 -613 497 -498 577 -573 602 -573 26 0 106 76 608 578 341
340 587 593 599 616 29 57 23 158 -15 215 -54 82 -149 117 -244 90 -44 -12
-87 -52 -496 -453 l-448 -439 -432 430 c-238 237 -448 439 -467 448 -52 27
-146 30 -195 7z"/>
</g>
</svg>
